<?xml version="1.0" encoding="utf-8"?>
<!-- Generator: Adobe Illustrator 15.1.0, SVG Export Plug-In . SVG Version: 6.00 Build 0)  -->
<!DOCTYPE svg PUBLIC "-//W3C//DTD SVG 1.1//EN" "http://www.w3.org/Graphics/SVG/1.1/DTD/svg11.dtd">
<svg version="1.1" id="Layer_1" xmlns="http://www.w3.org/2000/svg" xmlns:xlink="http://www.w3.org/1999/xlink" x="0px" y="0px"
	 width="199px" height="140px" viewBox="0 0 199 140" enable-background="new 0 0 199 140" xml:space="preserve">
<g>
	<path d="M79.923,131L19.552,31.758V131H8.2V12.494h12.212l59.855,98.554V12.494h11.352V131H79.923z"/>
	<path d="M81.034,39.58c16.425-14.293,33.298-28.462,59.584-28.462c14.448,0,27.52,5.16,37.839,13.76l-8.083,8.084
		c-8.084-6.536-18.404-10.492-29.756-10.492c-27.348,0-48.159,22.188-48.159,49.535s20.812,49.363,48.159,49.363
		c25.628,0,40.936-14.276,42.312-37.839h-34.571V72.865h47.299c0,40.247-21.327,59.854-55.039,59.854
		c-29.953,0-43.582-19.333-60.022-33.812"/>
</g>
</svg>
